<mxfile host="Electron" modified="2024-06-12T17:47:17.804Z" agent="Mozilla/5.0 (Windows NT 10.0; Win64; x64) AppleWebKit/537.36 (KHTML, like Gecko) draw.io/24.5.1 Chrome/124.0.6367.207 Electron/30.0.6 Safari/537.36" etag="G_smj2t7eUrXv8S14_6M" version="24.5.1" type="device">
  <diagram name="Página-1" id="_gZ4MixOe4pn3TS7mMsv">
    <mxGraphModel dx="1050" dy="621" grid="1" gridSize="10" guides="1" tooltips="1" connect="1" arrows="1" fold="1" page="1" pageScale="1" pageWidth="827" pageHeight="1169" math="0" shadow="0">
      <root>
        <mxCell id="0" />
        <mxCell id="1" parent="0" />
        <mxCell id="TT3n9Rpc2S1kPlzYUaW6-3" value="" style="edgeStyle=orthogonalEdgeStyle;rounded=0;orthogonalLoop=1;jettySize=auto;html=1;fillColor=#fad7ac;strokeColor=#B46504;fontColor=#050505;strokeWidth=2;" parent="1" source="TT3n9Rpc2S1kPlzYUaW6-1" target="TT3n9Rpc2S1kPlzYUaW6-2" edge="1">
          <mxGeometry relative="1" as="geometry" />
        </mxCell>
        <mxCell id="TT3n9Rpc2S1kPlzYUaW6-5" value="" style="edgeStyle=orthogonalEdgeStyle;rounded=0;orthogonalLoop=1;jettySize=auto;html=1;fillColor=#fad7ac;strokeColor=#B46504;fontColor=#050505;strokeWidth=2;" parent="1" source="TT3n9Rpc2S1kPlzYUaW6-1" target="TT3n9Rpc2S1kPlzYUaW6-4" edge="1">
          <mxGeometry relative="1" as="geometry" />
        </mxCell>
        <mxCell id="TT3n9Rpc2S1kPlzYUaW6-27" value="" style="edgeStyle=orthogonalEdgeStyle;rounded=0;orthogonalLoop=1;jettySize=auto;html=1;fillColor=#fad7ac;strokeColor=#B46504;fontColor=#050505;strokeWidth=2;" parent="1" source="TT3n9Rpc2S1kPlzYUaW6-1" target="TT3n9Rpc2S1kPlzYUaW6-26" edge="1">
          <mxGeometry relative="1" as="geometry" />
        </mxCell>
        <mxCell id="HI4UkNCsGEJlXe3su7FE-12" style="edgeStyle=orthogonalEdgeStyle;rounded=0;orthogonalLoop=1;jettySize=auto;html=1;entryX=0;entryY=0.5;entryDx=0;entryDy=0;strokeWidth=2;strokeColor=#B46504;" parent="1" source="TT3n9Rpc2S1kPlzYUaW6-1" target="HI4UkNCsGEJlXe3su7FE-2" edge="1">
          <mxGeometry relative="1" as="geometry" />
        </mxCell>
        <mxCell id="HI4UkNCsGEJlXe3su7FE-13" style="edgeStyle=orthogonalEdgeStyle;rounded=0;orthogonalLoop=1;jettySize=auto;html=1;entryX=1;entryY=0.5;entryDx=0;entryDy=0;strokeWidth=2;strokeColor=#B46504;" parent="1" source="TT3n9Rpc2S1kPlzYUaW6-1" target="HI4UkNCsGEJlXe3su7FE-1" edge="1">
          <mxGeometry relative="1" as="geometry" />
        </mxCell>
        <mxCell id="TT3n9Rpc2S1kPlzYUaW6-1" value="COMUNICACION" style="whiteSpace=wrap;html=1;fillColor=#fad7ac;strokeColor=#B46504;fontColor=#050505;fontStyle=1;fontSize=14;strokeWidth=2;" parent="1" vertex="1">
          <mxGeometry x="340" y="260" width="120" height="60" as="geometry" />
        </mxCell>
        <mxCell id="TT3n9Rpc2S1kPlzYUaW6-59" value="" style="edgeStyle=orthogonalEdgeStyle;rounded=0;orthogonalLoop=1;jettySize=auto;html=1;fillColor=#fad7ac;strokeColor=#B46504;fontColor=#050505;strokeWidth=2;" parent="1" source="TT3n9Rpc2S1kPlzYUaW6-2" target="TT3n9Rpc2S1kPlzYUaW6-58" edge="1">
          <mxGeometry relative="1" as="geometry" />
        </mxCell>
        <mxCell id="HI4UkNCsGEJlXe3su7FE-3" style="edgeStyle=orthogonalEdgeStyle;rounded=0;orthogonalLoop=1;jettySize=auto;html=1;entryX=0.5;entryY=0;entryDx=0;entryDy=0;strokeWidth=2;strokeColor=#B46504;" parent="1" source="TT3n9Rpc2S1kPlzYUaW6-2" target="TT3n9Rpc2S1kPlzYUaW6-74" edge="1">
          <mxGeometry relative="1" as="geometry" />
        </mxCell>
        <mxCell id="HI4UkNCsGEJlXe3su7FE-5" style="edgeStyle=orthogonalEdgeStyle;rounded=0;orthogonalLoop=1;jettySize=auto;html=1;entryX=0.5;entryY=1;entryDx=0;entryDy=0;strokeWidth=2;strokeColor=#B46504;" parent="1" source="TT3n9Rpc2S1kPlzYUaW6-2" target="TT3n9Rpc2S1kPlzYUaW6-73" edge="1">
          <mxGeometry relative="1" as="geometry" />
        </mxCell>
        <mxCell id="TT3n9Rpc2S1kPlzYUaW6-2" value="USB" style="whiteSpace=wrap;html=1;fillColor=#fad7ac;strokeColor=#B46504;fontColor=#050505;fontSize=14;fontStyle=1;strokeWidth=2;" parent="1" vertex="1">
          <mxGeometry x="160" y="260" width="120" height="60" as="geometry" />
        </mxCell>
        <mxCell id="TT3n9Rpc2S1kPlzYUaW6-11" value="" style="edgeStyle=orthogonalEdgeStyle;rounded=0;orthogonalLoop=1;jettySize=auto;html=1;fillColor=#fad7ac;strokeColor=#B46504;fontColor=#050505;strokeWidth=2;" parent="1" source="TT3n9Rpc2S1kPlzYUaW6-4" target="TT3n9Rpc2S1kPlzYUaW6-10" edge="1">
          <mxGeometry relative="1" as="geometry" />
        </mxCell>
        <mxCell id="TT3n9Rpc2S1kPlzYUaW6-4" value="UART" style="whiteSpace=wrap;html=1;fillColor=#fad7ac;strokeColor=#B46504;fontColor=#050505;fontStyle=1;fontSize=14;strokeWidth=2;" parent="1" vertex="1">
          <mxGeometry x="520" y="260" width="120" height="60" as="geometry" />
        </mxCell>
        <mxCell id="TT3n9Rpc2S1kPlzYUaW6-87" style="edgeStyle=orthogonalEdgeStyle;rounded=0;orthogonalLoop=1;jettySize=auto;html=1;entryX=0.5;entryY=1;entryDx=0;entryDy=0;fillColor=#fad7ac;strokeColor=#B46504;fontColor=#050505;strokeWidth=2;" parent="1" source="TT3n9Rpc2S1kPlzYUaW6-10" target="TT3n9Rpc2S1kPlzYUaW6-24" edge="1">
          <mxGeometry relative="1" as="geometry" />
        </mxCell>
        <mxCell id="EvEI6CghTEh8Xity6f0r-2" style="edgeStyle=orthogonalEdgeStyle;rounded=0;orthogonalLoop=1;jettySize=auto;html=1;entryX=0.5;entryY=0;entryDx=0;entryDy=0;strokeWidth=2;strokeColor=#B46504;" parent="1" source="TT3n9Rpc2S1kPlzYUaW6-10" target="TT3n9Rpc2S1kPlzYUaW6-18" edge="1">
          <mxGeometry relative="1" as="geometry" />
        </mxCell>
        <mxCell id="EvEI6CghTEh8Xity6f0r-3" style="edgeStyle=orthogonalEdgeStyle;rounded=0;orthogonalLoop=1;jettySize=auto;html=1;entryX=0.5;entryY=0;entryDx=0;entryDy=0;strokeWidth=2;strokeColor=#B46504;" parent="1" source="TT3n9Rpc2S1kPlzYUaW6-10" target="TT3n9Rpc2S1kPlzYUaW6-17" edge="1">
          <mxGeometry relative="1" as="geometry" />
        </mxCell>
        <mxCell id="EvEI6CghTEh8Xity6f0r-4" style="edgeStyle=orthogonalEdgeStyle;rounded=0;orthogonalLoop=1;jettySize=auto;html=1;entryX=0.5;entryY=0;entryDx=0;entryDy=0;strokeWidth=2;strokeColor=#B46504;" parent="1" source="TT3n9Rpc2S1kPlzYUaW6-10" target="EvEI6CghTEh8Xity6f0r-1" edge="1">
          <mxGeometry relative="1" as="geometry">
            <Array as="points">
              <mxPoint x="760" y="350" />
              <mxPoint x="960" y="350" />
            </Array>
          </mxGeometry>
        </mxCell>
        <mxCell id="EvEI6CghTEh8Xity6f0r-5" style="edgeStyle=orthogonalEdgeStyle;rounded=0;orthogonalLoop=1;jettySize=auto;html=1;entryX=0.5;entryY=0;entryDx=0;entryDy=0;strokeWidth=2;strokeColor=#B46504;" parent="1" source="TT3n9Rpc2S1kPlzYUaW6-10" target="TT3n9Rpc2S1kPlzYUaW6-14" edge="1">
          <mxGeometry relative="1" as="geometry" />
        </mxCell>
        <mxCell id="EvEI6CghTEh8Xity6f0r-6" style="edgeStyle=orthogonalEdgeStyle;rounded=0;orthogonalLoop=1;jettySize=auto;html=1;entryX=0.5;entryY=0;entryDx=0;entryDy=0;strokeWidth=2;strokeColor=#B46504;" parent="1" source="TT3n9Rpc2S1kPlzYUaW6-10" target="TT3n9Rpc2S1kPlzYUaW6-12" edge="1">
          <mxGeometry relative="1" as="geometry">
            <Array as="points">
              <mxPoint x="760" y="350" />
              <mxPoint x="560" y="350" />
            </Array>
          </mxGeometry>
        </mxCell>
        <mxCell id="TT3n9Rpc2S1kPlzYUaW6-10" value="CONFIGURACIÓN" style="whiteSpace=wrap;html=1;fillColor=#fad7ac;strokeColor=#B46504;fontColor=#050505;strokeWidth=2;" parent="1" vertex="1">
          <mxGeometry x="700" y="260" width="120" height="60" as="geometry" />
        </mxCell>
        <mxCell id="TT3n9Rpc2S1kPlzYUaW6-12" value="Modo Asíncrono" style="whiteSpace=wrap;html=1;fillColor=#fad7ac;strokeColor=#B46504;fontColor=#050505;strokeWidth=2;" parent="1" vertex="1">
          <mxGeometry x="520" y="380" width="80" height="60" as="geometry" />
        </mxCell>
        <mxCell id="TT3n9Rpc2S1kPlzYUaW6-14" value="Baud Rate" style="whiteSpace=wrap;html=1;fillColor=#fad7ac;strokeColor=#B46504;fontColor=#050505;strokeWidth=2;" parent="1" vertex="1">
          <mxGeometry x="620" y="380" width="80" height="60" as="geometry" />
        </mxCell>
        <mxCell id="TT3n9Rpc2S1kPlzYUaW6-17" value="Parity" style="whiteSpace=wrap;html=1;fillColor=#fad7ac;strokeColor=#B46504;fontColor=#050505;strokeWidth=2;" parent="1" vertex="1">
          <mxGeometry x="820" y="380" width="80" height="60" as="geometry" />
        </mxCell>
        <mxCell id="TT3n9Rpc2S1kPlzYUaW6-18" value="Data Size" style="whiteSpace=wrap;html=1;fillColor=#fad7ac;strokeColor=#B46504;fontColor=#050505;strokeWidth=2;" parent="1" vertex="1">
          <mxGeometry x="720" y="380" width="80" height="60" as="geometry" />
        </mxCell>
        <mxCell id="TT3n9Rpc2S1kPlzYUaW6-24" value="Interrupción Global" style="whiteSpace=wrap;html=1;fillColor=#fad7ac;strokeColor=#B46504;fontColor=#050505;strokeWidth=2;" parent="1" vertex="1">
          <mxGeometry x="720" y="150" width="80" height="60" as="geometry" />
        </mxCell>
        <mxCell id="TT3n9Rpc2S1kPlzYUaW6-61" style="edgeStyle=orthogonalEdgeStyle;rounded=0;orthogonalLoop=1;jettySize=auto;html=1;entryX=0.5;entryY=0;entryDx=0;entryDy=0;fillColor=#fad7ac;strokeColor=#B46504;fontColor=#050505;strokeWidth=2;" parent="1" source="TT3n9Rpc2S1kPlzYUaW6-26" target="TT3n9Rpc2S1kPlzYUaW6-47" edge="1">
          <mxGeometry relative="1" as="geometry" />
        </mxCell>
        <mxCell id="TT3n9Rpc2S1kPlzYUaW6-62" style="edgeStyle=orthogonalEdgeStyle;rounded=0;orthogonalLoop=1;jettySize=auto;html=1;entryX=0.5;entryY=0;entryDx=0;entryDy=0;fillColor=#fad7ac;strokeColor=#B46504;fontColor=#050505;strokeWidth=2;" parent="1" source="TT3n9Rpc2S1kPlzYUaW6-26" target="TT3n9Rpc2S1kPlzYUaW6-30" edge="1">
          <mxGeometry relative="1" as="geometry" />
        </mxCell>
        <mxCell id="TT3n9Rpc2S1kPlzYUaW6-26" value="Protocolo UNER" style="whiteSpace=wrap;html=1;fillColor=#fad7ac;strokeColor=#B46504;fontColor=#050505;fontStyle=1;strokeWidth=2;" parent="1" vertex="1">
          <mxGeometry x="360" y="350" width="80" height="60" as="geometry" />
        </mxCell>
        <mxCell id="TT3n9Rpc2S1kPlzYUaW6-63" style="edgeStyle=orthogonalEdgeStyle;rounded=0;orthogonalLoop=1;jettySize=auto;html=1;entryX=0.5;entryY=0;entryDx=0;entryDy=0;fillColor=#fad7ac;strokeColor=#B46504;fontColor=#050505;strokeWidth=2;" parent="1" source="TT3n9Rpc2S1kPlzYUaW6-30" target="TT3n9Rpc2S1kPlzYUaW6-42" edge="1">
          <mxGeometry relative="1" as="geometry" />
        </mxCell>
        <mxCell id="TT3n9Rpc2S1kPlzYUaW6-64" style="edgeStyle=orthogonalEdgeStyle;rounded=0;orthogonalLoop=1;jettySize=auto;html=1;entryX=0.5;entryY=0;entryDx=0;entryDy=0;fillColor=#fad7ac;strokeColor=#B46504;fontColor=#050505;strokeWidth=2;" parent="1" source="TT3n9Rpc2S1kPlzYUaW6-30" target="TT3n9Rpc2S1kPlzYUaW6-41" edge="1">
          <mxGeometry relative="1" as="geometry" />
        </mxCell>
        <mxCell id="TT3n9Rpc2S1kPlzYUaW6-30" value="TX&lt;div&gt;(Transmit)&lt;/div&gt;" style="whiteSpace=wrap;html=1;fillColor=#fad7ac;strokeColor=#B46504;fontColor=#050505;strokeWidth=2;" parent="1" vertex="1">
          <mxGeometry x="310" y="460" width="80" height="60" as="geometry" />
        </mxCell>
        <mxCell id="TT3n9Rpc2S1kPlzYUaW6-40" value="Buffer" style="whiteSpace=wrap;html=1;fillColor=#fad7ac;strokeColor=#B46504;fontColor=#050505;strokeWidth=2;" parent="1" vertex="1">
          <mxGeometry x="460" y="570" width="80" height="60" as="geometry" />
        </mxCell>
        <mxCell id="TT3n9Rpc2S1kPlzYUaW6-41" value="Indice de Lectura" style="whiteSpace=wrap;html=1;fillColor=#fad7ac;strokeColor=#B46504;fontColor=#050505;strokeWidth=2;" parent="1" vertex="1">
          <mxGeometry x="360" y="570" width="80" height="60" as="geometry" />
        </mxCell>
        <mxCell id="TT3n9Rpc2S1kPlzYUaW6-42" value="Indice de Escritura" style="whiteSpace=wrap;html=1;fillColor=#fad7ac;strokeColor=#B46504;fontColor=#050505;strokeWidth=2;" parent="1" vertex="1">
          <mxGeometry x="260" y="570" width="80" height="60" as="geometry" />
        </mxCell>
        <mxCell id="TT3n9Rpc2S1kPlzYUaW6-65" style="edgeStyle=orthogonalEdgeStyle;rounded=0;orthogonalLoop=1;jettySize=auto;html=1;entryX=0.5;entryY=0;entryDx=0;entryDy=0;fillColor=#fad7ac;strokeColor=#B46504;fontColor=#050505;strokeWidth=2;" parent="1" source="TT3n9Rpc2S1kPlzYUaW6-47" target="TT3n9Rpc2S1kPlzYUaW6-41" edge="1">
          <mxGeometry relative="1" as="geometry" />
        </mxCell>
        <mxCell id="TT3n9Rpc2S1kPlzYUaW6-66" style="edgeStyle=orthogonalEdgeStyle;rounded=0;orthogonalLoop=1;jettySize=auto;html=1;entryX=0.5;entryY=0;entryDx=0;entryDy=0;fillColor=#fad7ac;strokeColor=#B46504;fontColor=#050505;strokeWidth=2;" parent="1" source="TT3n9Rpc2S1kPlzYUaW6-47" target="TT3n9Rpc2S1kPlzYUaW6-40" edge="1">
          <mxGeometry relative="1" as="geometry" />
        </mxCell>
        <mxCell id="TT3n9Rpc2S1kPlzYUaW6-47" value="RX&lt;div&gt;(Read)&lt;/div&gt;" style="whiteSpace=wrap;html=1;fillColor=#fad7ac;strokeColor=#B46504;fontColor=#050505;strokeWidth=2;" parent="1" vertex="1">
          <mxGeometry x="414" y="460" width="80" height="60" as="geometry" />
        </mxCell>
        <mxCell id="TT3n9Rpc2S1kPlzYUaW6-58" value="CONFIGURACIÓN" style="whiteSpace=wrap;html=1;fillColor=#fad7ac;strokeColor=#B46504;fontColor=#050505;strokeWidth=2;" parent="1" vertex="1">
          <mxGeometry x="160" y="390" width="120" height="60" as="geometry" />
        </mxCell>
        <mxCell id="TT3n9Rpc2S1kPlzYUaW6-73" value="Recibir paquete de datos" style="whiteSpace=wrap;html=1;fillColor=#fad7ac;strokeColor=#B46504;fontColor=#050505;strokeWidth=2;" parent="1" vertex="1">
          <mxGeometry x="50" y="190" width="80" height="60" as="geometry" />
        </mxCell>
        <mxCell id="TT3n9Rpc2S1kPlzYUaW6-74" value="Enviar paquete de datos" style="whiteSpace=wrap;html=1;fillColor=#fad7ac;strokeColor=#B46504;fontColor=#050505;strokeWidth=2;" parent="1" vertex="1">
          <mxGeometry x="50" y="330" width="80" height="60" as="geometry" />
        </mxCell>
        <mxCell id="HI4UkNCsGEJlXe3su7FE-14" style="edgeStyle=orthogonalEdgeStyle;rounded=0;orthogonalLoop=1;jettySize=auto;html=1;entryX=0.5;entryY=0;entryDx=0;entryDy=0;strokeWidth=2;strokeColor=#B46504;" parent="1" source="HI4UkNCsGEJlXe3su7FE-1" target="TT3n9Rpc2S1kPlzYUaW6-1" edge="1">
          <mxGeometry relative="1" as="geometry">
            <Array as="points">
              <mxPoint x="400" y="180" />
            </Array>
          </mxGeometry>
        </mxCell>
        <mxCell id="HI4UkNCsGEJlXe3su7FE-1" value="QT" style="whiteSpace=wrap;html=1;fillColor=#fad7ac;strokeColor=#B46504;fontColor=#050505;fontStyle=1;fontSize=14;strokeWidth=2;" parent="1" vertex="1">
          <mxGeometry x="308" y="150" width="60" height="60" as="geometry" />
        </mxCell>
        <mxCell id="HI4UkNCsGEJlXe3su7FE-15" style="edgeStyle=orthogonalEdgeStyle;rounded=0;orthogonalLoop=1;jettySize=auto;html=1;strokeWidth=2;strokeColor=#B46504;" parent="1" source="HI4UkNCsGEJlXe3su7FE-2" edge="1">
          <mxGeometry relative="1" as="geometry">
            <mxPoint x="400" y="260" as="targetPoint" />
          </mxGeometry>
        </mxCell>
        <mxCell id="HI4UkNCsGEJlXe3su7FE-2" value="AUTITO" style="whiteSpace=wrap;html=1;fillColor=#fad7ac;strokeColor=#B46504;fontColor=#050505;fontStyle=1;fontSize=14;strokeWidth=2;" parent="1" vertex="1">
          <mxGeometry x="432" y="150" width="60" height="60" as="geometry" />
        </mxCell>
        <mxCell id="EvEI6CghTEh8Xity6f0r-1" value="Stop Bits" style="whiteSpace=wrap;html=1;fillColor=#fad7ac;strokeColor=#B46504;fontColor=#050505;strokeWidth=2;" parent="1" vertex="1">
          <mxGeometry x="920" y="380" width="80" height="60" as="geometry" />
        </mxCell>
      </root>
    </mxGraphModel>
  </diagram>
</mxfile>
